<svg xmlns="http://www.w3.org/2000/svg" width="48" height="48" fill="none" viewBox="0 0 48 48"><path fill="#2d31fa" d="M42.017 39.022c-.15 0-.376-.075-.452-.15-.3-.301-.375-.753-.075-1.053 3.159-3.836 4.964-8.8 4.964-13.914s-1.655-9.853-4.889-13.839c-.225-.3-.225-.827.151-1.053.3-.225.827-.225 1.053.076a23.34 23.34 0 0 1 5.19 14.74c0 5.416-1.881 10.755-5.265 14.817-.226.3-.452.376-.677.376"/><path fill="#2d31fa" d="M24.419 43.008h-.376C13.664 42.858 5.24 34.284 5.24 23.905S13.664 4.952 24.043 4.802h.752c10.378.15 18.802 8.724 18.802 19.103s-8.424 18.953-18.802 19.103zm-.376-36.702c-9.551.15-17.298 8.047-17.298 17.599s7.747 17.448 17.298 17.599h.752c9.551-.15 17.298-8.047 17.298-17.6 0-9.55-7.747-17.448-17.298-17.598zm-6.618 18.05c-.451 0-.752-.3-.752-.752v-2.707c0-1.053.827-1.88 1.88-1.88h5.866c.451 0 .752.3.752.751 0 .452-.3.752-.752.752h-5.866c-.15 0-.376.226-.376.377v2.707c0 .451-.301.752-.752.752"/><path fill="#2d31fa" d="M24.42 35.036c-3.159 0-6.393-.45-9.25-1.353-6.092-1.88-9.853-5.641-9.853-9.778 0-4.06 3.76-7.746 9.853-9.777q4.06-1.353 9.25-1.354c3.159 0 6.392.452 9.25 1.354 6.167 1.88 9.928 5.64 9.853 9.777 0 3.986-3.76 7.747-9.853 9.702-2.707.978-5.79 1.43-9.25 1.43m0-20.757c-3.31 0-6.242.45-8.8 1.278-5.414 1.805-8.798 4.964-8.798 8.348 0 3.46 3.384 6.619 8.799 8.273 2.782.903 5.79 1.354 8.799 1.354 3.309 0 6.242-.451 8.8-1.278 5.414-1.73 8.798-4.964 8.798-8.349.075-3.46-3.309-6.618-8.799-8.273-2.783-.902-5.79-1.353-8.8-1.353m-6.994 10.078c-.452 0-.752-.301-.752-.752v-2.708c0-1.053.827-1.88 1.88-1.88h5.866c.451 0 .752.3.752.752 0 .451-.3.752-.752.752h-5.866c-.15 0-.376.226-.376.376v2.708c0 .45-.301.752-.752.752"/><path fill="#2d31fa" d="M24.418 43.008h-.376c-3.986-.226-7.446-3.91-9.401-9.852q-1.354-4.061-1.354-9.251c0-3.159.451-6.393 1.354-9.25 1.88-5.942 5.415-9.628 9.326-9.853h.827c3.986.225 7.445 3.91 9.325 9.852.903 2.708 1.43 5.791 1.43 9.25 0 3.16-.452 6.394-1.354 9.252-1.88 5.941-5.415 9.626-9.326 9.852zm-.376-36.702c-3.234.226-6.243 3.46-7.897 8.8-.902 2.782-1.354 5.79-1.354 8.799 0 3.31.451 6.242 1.279 8.8 1.654 5.264 4.738 8.648 7.972 8.799h.677c3.233-.226 6.242-3.46 7.896-8.8.978-2.782 1.43-5.79 1.43-8.8 0-3.308-.452-6.241-1.28-8.799-1.654-5.264-4.737-8.573-7.971-8.8zm-6.619 18.05c-.45 0-.752-.3-.752-.752v-2.707c0-1.053.828-1.88 1.88-1.88h5.867c.451 0 .752.3.752.751 0 .452-.301.752-.752.752h-5.866c-.15 0-.376.226-.376.377v2.707c0 .451-.301.752-.752.752"/><path fill="#2d31fa" d="M24.418 43.087c-.451 0-.752-.301-.752-.752v-8.048c0-.451.3-.752.752-.752.451 0 .752.301.752.752v8.048c0 .45-.3.752-.752.752m0-28.807c-.451 0-.752-.302-.752-.753V5.48c0-.452.3-.752.752-.752.451 0 .752.3.752.752v8.047c0 .451-.3.752-.752.752m18.427 10.379h-8.047c-.451 0-.752-.301-.752-.753 0-.45.3-.752.752-.752h8.047c.451 0 .752.301.752.752 0 .452-.3.752-.752.752m-28.805.001H5.993c-.451 0-.752-.301-.752-.753 0-.45.301-.752.752-.752h8.047c.452 0 .753.301.753.752 0 .452-.301.752-.753.752m16.245 6.545H18.553a1.86 1.86 0 0 1-1.88-1.88v-5.79c0-.452.3-.753.752-.753.451 0 .752.3.752.752v5.791c0 .15.226.376.376.376h11.732c.15 0 .376-.225.376-.376V20.9c0-.15-.225-.376-.376-.376H24.42c-.451 0-.752-.301-.752-.752 0-.452.3-.752.752-.752h5.866c1.053 0 1.88.827 1.88 1.88v8.423c0 1.053-.827 1.88-1.88 1.88"/><path fill="#2d31fa" d="M27.578 20.523c-.451 0-.752-.3-.752-.752v-1.128c0-.226-.075-.527-.3-.527h-4.212c-.15 0-.301.226-.301.527v1.128c0 .451-.3.752-.752.752-.451 0-.752-.3-.752-.752v-1.128c0-1.128.827-2.03 1.805-2.03h4.211c1.053 0 1.805.902 1.805 2.03v1.128c0 .451-.3.752-.752.752M22.54 26.16h-5.114c-.451 0-.752-.3-.752-.752 0-.45.3-.752.752-.752h5.114c.451 0 .752.301.752.752 0 .452-.3.752-.752.752m8.873 0h-5.114c-.451 0-.752-.3-.752-.752 0-.45.3-.752.752-.752h5.19c.45 0 .751.301.751.752 0 .452-.376.752-.827.752"/><path fill="#2d31fa" d="M26.224 27.666H22.54c-.451 0-.752-.301-.752-.752v-3.009c0-.45.3-.752.752-.752h3.685c.452 0 .752.301.752.752v3.009c0 .451-.3.752-.752.752m-2.933-1.504h2.181v-1.505h-2.18zM9.827 7.21c-.226 0-.451-.075-.602-.3a.743.743 0 0 1 .15-1.054C13.513 2.322 18.853.441 24.418.441c5.49 0 10.68 1.88 14.966 5.34.301.226.376.752.075 1.053-.225.301-.752.376-1.052.075a22.1 22.1 0 0 0-13.989-4.963c-5.19 0-10.228 1.805-14.139 5.114-.075.075-.3.15-.451.15m14.59 40.235c-5.49 0-10.83-1.956-14.966-5.415-.3-.301-.376-.752-.075-1.053.3-.301.752-.376 1.053-.075 3.91 3.309 8.874 5.114 14.064 5.114a22 22 0 0 0 13.988-5.04c.3-.3.827-.225 1.053.076.3.3.226.827-.075 1.053-4.287 3.46-9.627 5.34-15.042 5.34M6.82 38.949c-.226 0-.452-.076-.602-.301C2.758 34.436.953 29.322.953 23.907c0-5.34 1.805-10.605 5.114-14.666a.743.743 0 0 1 1.053-.15c.3.225.376.752.15 1.052-3.083 3.836-4.813 8.725-4.813 13.764 0 5.114 1.73 9.927 4.964 13.838.3.301.226.828-.075 1.053-.15.075-.376.15-.527.15"/><path fill="#2d31fa" d="M40.738 10.819A3.017 3.017 0 0 1 37.73 7.81a3.017 3.017 0 0 1 3.008-3.008 3.017 3.017 0 0 1 3.008 3.008 3.017 3.017 0 0 1-3.008 3.009m0-4.513c-.828 0-1.504.677-1.504 1.504s.676 1.504 1.504 1.504c.827 0 1.504-.677 1.504-1.504s-.677-1.504-1.504-1.504m0 36.854a3.017 3.017 0 0 1-3.008-3.008 3.017 3.017 0 0 1 3.008-3.008 3.017 3.017 0 0 1 3.008 3.008 3.017 3.017 0 0 1-3.008 3.008m0-4.512c-.828 0-1.504.677-1.504 1.504s.676 1.504 1.504 1.504c.827 0 1.504-.677 1.504-1.504s-.677-1.504-1.504-1.504M8.023 10.819A3.017 3.017 0 0 1 5.015 7.81a3.017 3.017 0 0 1 3.008-3.008A3.017 3.017 0 0 1 11.03 7.81a3.017 3.017 0 0 1-3.008 3.009m0-4.513c-.827 0-1.504.677-1.504 1.504s.677 1.504 1.504 1.504 1.504-.677 1.504-1.504-.677-1.504-1.504-1.504m.001 36.854a3.017 3.017 0 0 1-3.008-3.008 3.017 3.017 0 0 1 3.008-3.008 3.017 3.017 0 0 1 3.008 3.008 3.017 3.017 0 0 1-3.008 3.008m0-4.512c-.827 0-1.504.677-1.504 1.504s.677 1.504 1.504 1.504 1.504-.677 1.504-1.504-.677-1.504-1.504-1.504"/></svg>