<svg xmlns="http://www.w3.org/2000/svg" width="54" height="54" fill="none" viewBox="0 0 54 54"><path fill="#2d31fa" d="M51.2 33.96V30.9a2.804 2.804 0 0 0-2.802-2.801h-5.045q.13-1.4 0-2.801h5.045a2.804 2.804 0 0 0 2.801-2.801v-3.06c1.627-.58 2.802-2.12 2.802-3.943a4.206 4.206 0 0 0-4.202-4.202 4.206 4.206 0 0 0-4.202 4.202c0 1.823 1.175 3.364 2.801 3.944v3.059h-3.116c.765-.003.705-1.49.477-1.884l-3.903-6.739a1.4 1.4 0 0 0-1.91-.512l-2.11 1.214a16.1 16.1 0 0 0-5.143-2.955V9.19c0-.667-.477-1.199-1.101-1.34V5.69h3.059c.58 1.626 2.12 2.8 3.943 2.8a4.206 4.206 0 0 0 4.202-4.201A4.206 4.206 0 0 0 38.594.088c-1.823 0-3.363 1.174-3.943 2.801h-3.06a2.804 2.804 0 0 0-2.8 2.801v2.101h-2.802v-2.1a2.804 2.804 0 0 0-2.8-2.802h-3.06c-.58-1.627-2.12-2.801-3.944-2.801a4.206 4.206 0 0 0-4.201 4.202 4.206 4.206 0 0 0 4.201 4.201c1.824 0 3.364-1.174 3.944-2.8h3.06v2.16c-.625.141-1.102.673-1.102 1.34v2.43a16.1 16.1 0 0 0-5.144 2.955l-2.109-1.214a1.4 1.4 0 0 0-1.91.512L9.02 20.613a1.394 1.394 0 0 0 .477 1.884H6.382v-3.06c1.626-.58 2.8-2.12 2.8-3.943a4.206 4.206 0 0 0-4.201-4.202 4.206 4.206 0 0 0-4.202 4.202c0 1.823 1.175 3.364 2.801 3.944v3.059a2.804 2.804 0 0 0 2.802 2.8h5.045a15 15 0 0 0 0 2.802H6.382A2.804 2.804 0 0 0 3.58 30.9v3.06c-1.626.58-2.8 2.12-2.8 3.943a4.206 4.206 0 0 0 4.201 4.202 4.206 4.206 0 0 0 4.202-4.202c0-1.823-1.175-3.364-2.801-3.944V30.9h3.116c-.766.003-.705 1.49-.477 1.884l3.902 6.739a1.4 1.4 0 0 0 1.911.512l2.11-1.214a16.1 16.1 0 0 0 5.143 2.955v2.43c0 .667.477 1.199 1.101 1.34v2.16H20.13c-.58-1.626-2.12-2.8-3.944-2.8a4.206 4.206 0 0 0-4.201 4.201 4.206 4.206 0 0 0 4.201 4.202c1.824 0 3.364-1.174 3.944-2.801h3.06a2.804 2.804 0 0 0 2.8-2.801v-2.101h2.801v2.1a2.804 2.804 0 0 0 2.802 2.802h3.059c.58 1.627 2.12 2.801 3.943 2.801a4.206 4.206 0 0 0 4.202-4.202 4.206 4.206 0 0 0-4.202-4.201c-1.823 0-3.363 1.174-3.943 2.8h-3.06v-2.16c.625-.141 1.102-.673 1.102-1.34v-2.43a16.1 16.1 0 0 0 5.144-2.955l2.109 1.214a1.4 1.4 0 0 0 1.91-.512l3.902-6.739a1.406 1.406 0 0 0-.477-1.884h3.117v3.06c-1.626.58-2.8 2.12-2.8 3.943a4.206 4.206 0 0 0 4.2 4.202 4.206 4.206 0 0 0 4.203-4.202c0-1.823-1.175-3.364-2.802-3.944m-23.81 3.943c-6.178 0-11.205-5.026-11.205-11.204s5.027-11.205 11.205-11.205 11.204 5.026 11.204 11.205c0 6.177-5.026 11.204-11.204 11.204"/></svg>