<svg xmlns="http://www.w3.org/2000/svg" width="45" height="46" fill="none" viewBox="0 0 45 46"><path fill="#2d31fa" d="M11.213 40.508a2.72 2.72 0 0 1 .523 4.259 2.72 2.72 0 0 1-1.924.799H2.797c-2.4 0-3.646-2.924-1.924-4.649a2.8 2.8 0 0 1 .817-.564l-.13-11.73c-.033-2.999 4.217-8.209 6.22-10.045V3.446a2.485 2.485 0 0 1 2.477-2.48h23.096a2.483 2.483 0 0 1 2.477 2.48v17.429c.52.215.872.724.872 1.305l.013.584q.01.014.036.022c.7.188 1.378.469 2.005.831l.081-.01c.42-.42.714-.796 1.381-.796.36 0 .722.136.998.411l.986.986c.551.55.551 1.447 0 1.998l-.405.42q-.005.019.01.043a8.4 8.4 0 0 1 .832 2.005l.065.049c.594 0 1.068-.058 1.54.414.256.256.414.608.414.997v1.393c0 .78-.634 1.41-1.414 1.41h-.539l-.065.05a8.4 8.4 0 0 1-.832 2.008l.01.081v-.003c.423.422.797.715.797 1.382 0 .356-.14.727-.415.996l.003.003-.987.983a1.413 1.413 0 0 1-1.997 0l-.42-.405c-.01-.003-.027.003-.043.01a8.3 8.3 0 0 1-2.005.832l-.05.065c0 .597.058 1.068-.414 1.54a1.4 1.4 0 0 1-.996.414h-1.393a1.41 1.41 0 0 1-1.411-1.41l-.014-.586a.1.1 0 0 0-.035-.022 8.3 8.3 0 0 1-2.008-.832l-.08.01c-.422.422-.714.799-1.381.799-.363 0-.725-.14-1-.414l-.983-.984a1.42 1.42 0 0 1-.409-.877h-13.06c-.287.414-.636.86-1.048 1.357-.632.757-1.136 1.63-1.256 2.574m-1.4.956H2.796c-1.207 0-1.85 1.475-.973 2.351.25.248.594.404.973.404h7.015c1.208 0 1.85-1.474.973-2.351a1.38 1.38 0 0 0-.973-.404m.136-1.525c.223-1.049.784-2.022 1.49-2.866 2.371-2.843 2.237-3.864 1.786-7.374l-.357-3.007c-.076-.75-.436-1.276-1.047-.95-.277.143-.528.44-.667.865v5.517c0 .37-.303.673-.673.673H8.343a.67.67 0 0 1-.67-.672c0-5.556.041-6.186.046-11.591a29 29 0 0 0-3.146 4.06c-.976 1.537-1.684 3.032-1.672 4.018l.127 11.327zm-.823-8.487h.682v-4.94q-.002-.09.027-.18c.261-.934.888-1.632 1.64-1.904v-1.95c0-.372.302-.674.672-.674h3.425v-2.7c0-.37.3-.672.673-.672h3.421v-2.513c0-.371.303-.673.673-.673h3.425v-2.024c0-.373.3-.673.673-.673h3.422v-1.463c0-.373.302-.673.672-.673h4.098c.371 0 .673.3.673.673V20.9c.37-.174.78-.134 1.182-.134V3.446a1.14 1.14 0 0 0-1.133-1.134H10.257c-.621 0-1.13.513-1.13 1.134zm3.694-7.03c.79.3 1.277 1.093 1.381 2.14.082.811.166 1.523.245 2.157h1.126v-5.57h-2.75zm1.801 5.643c.297 2.332.404 3.645-.304 5.165H27.21c.33-.33.19.003-.314-1.212a8 8 0 0 1-.349-1.032l-.065-.046c-.597 0-1.068.057-1.54-.415a1.4 1.4 0 0 1-.414-1l.003-1.46zm19.985-4.815a5.56 5.56 0 0 1 5.559 5.556 5.559 5.559 0 0 1-11.117 0 5.557 5.557 0 0 1 5.558-5.556m2.978 2.578a4.213 4.213 0 1 0-5.955 5.958 4.213 4.213 0 0 0 5.955-5.958m-11.08.891.045-.046a8.2 8.2 0 0 1 .832-2.005l-.01-.082c-.423-.42-.8-.714-.8-1.381 0-.355.14-.728.415-.997l.875-.874v-9.438h-2.75V28.72zm2.702-5.891c.796.136 1.068.88 1.224.787q.73-.421 1.528-.686V11.758h-2.752zm6.085-.716h-1.393l-.071.068v.54h.003c0 .645-.444 1.217-1.055 1.364-.536.13-1.198.42-1.672.695a1.41 1.41 0 0 1-1.704-.223c-.062-.06-.373-.4-.43-.4v-.004l-.046.022-.986.984v-.003.095l.384.385-.003.002c.455.455.545 1.145.223 1.704a7 7 0 0 0-.695 1.678 1.41 1.41 0 0 1-1.362 1.049c-.087 0-.548-.023-.588.019a.1.1 0 0 0-.02.046v1.393c0 .21.801-.153 1.467.356.242.186.422.447.503.758.158.59.392 1.155.695 1.68a1.4 1.4 0 0 1-.221 1.704c-.068.068-.404.371-.404.43q.001.03.02.047l.986.986c.147.147.454-.676 1.292-.784.3-.042.61.019.888.18a7 7 0 0 0 1.68.694 1.41 1.41 0 0 1 1.048 1.362c0 .088-.02.548.022.589q.016.017.046.019h1.392c.207 0-.155-.8.357-1.466.186-.242.447-.422.758-.504a7 7 0 0 0 1.678-.695 1.41 1.41 0 0 1 1.706.221c.06.063.37.404.43.404a.07.07 0 0 0 .047-.02l.983-.985.003.003-.003-.096-.382-.384a1.405 1.405 0 0 1-.223-1.703c.303-.526.54-1.09.695-1.681a1.41 1.41 0 0 1 1.365-1.047v.003h.54v-.003l.068-.068v-1.393c0-.207-.801.156-1.466-.357a1.42 1.42 0 0 1-.507-.757 7 7 0 0 0-.695-1.678 1.414 1.414 0 0 1 .223-1.706c.06-.06.401-.37.401-.43a.06.06 0 0 0-.02-.046l-.982-.983c-.148-.148-.455.672-1.292.784-.3.038-.613-.02-.891-.18a7 7 0 0 0-1.678-.695 1.41 1.41 0 0 1-1.05-1.365c0-.084.023-.545-.018-.588a.07.07 0 0 0-.047-.02m-12.27-15.92a.672.672 0 0 1 0-1.346h2.54a.673.673 0 0 1 0 1.346zm0 2.961a.672.672 0 0 1 0-1.346h5.201a.673.673 0 0 1 0 1.346zm6.796 0a.673.673 0 0 1 0-1.346h3.157a.673.673 0 0 1 0 1.346zm-2.537-2.961a.67.67 0 0 1-.67-.673c0-.371.3-.673.67-.673h5.694a.673.673 0 0 1 0 1.346zM19.684 9.69l-3.25.027v3.254a3.98 3.98 0 0 0 3.25-3.28M15.087 8.4V5.134a3.98 3.98 0 0 0-3.26 3.34zm1.346-.021 3.24-.027a3.98 3.98 0 0 0-3.24-3.216zm-1.346 4.593V9.739l-3.228.076a3.98 3.98 0 0 0 3.228 3.156m.673-9.24a5.321 5.321 0 1 1 0 10.642 5.321 5.321 0 0 1 0-10.642m3.908 16.046h-2.75v8.942h2.75zm4.097-3.185h-2.752v12.127h2.752z"/></svg>