<svg xmlns="http://www.w3.org/2000/svg" width="30" height="30" fill="none" viewBox="0 0 50 50"><g clip-path="url(#a)"><path fill="#ffd88f" d="M42.533 18.225c0-9.586-7.728-17.37-17.308-17.491-9.583-.12-17.55 7.549-17.754 17.109-.121 5.678 2.47 10.756 6.57 14.036v2.425a4.414 4.414 0 0 0 4.42 4.409h13.078a4.415 4.415 0 0 0 4.42-4.41V31.88c4.007-3.206 6.574-8.13 6.574-13.654"/><path fill="#ffc963" d="M25.225.734Q24.123.72 23.055.84c8.76.973 15.572 8.385 15.572 17.384 0 5.523-2.567 10.448-6.574 13.654v2.425a4.414 4.414 0 0 1-4.42 4.409h3.906a4.415 4.415 0 0 0 4.42-4.41V31.88c4.008-3.206 6.574-8.13 6.574-13.654 0-9.586-7.728-17.37-17.308-17.491"/><path fill="#59a1a5" d="M26.838 49.268h-3.676a2.977 2.977 0 0 1-2.977-2.978v-4.57h9.63v4.57a2.977 2.977 0 0 1-2.977 2.977"/><path fill="#419296" d="M25.909 41.72v4.57a2.977 2.977 0 0 1-2.862 2.974q.057.003.115.003h3.676a2.977 2.977 0 0 0 2.977-2.977v-4.57z"/><path fill="#b5e8e0" d="M29.857 45.317h-9.714a2.373 2.373 0 0 1-2.373-2.374v-4.245h14.46v4.245a2.373 2.373 0 0 1-2.373 2.374"/><path fill="#97dbd1" d="M28.324 38.698v4.245a2.373 2.373 0 0 1-2.373 2.374h3.906a2.373 2.373 0 0 0 2.373-2.374v-4.245z"/><path fill="#000" d="M37.992 5.414A18.17 18.17 0 0 0 25.235.002 18.2 18.2 0 0 0 15.793 2.5a.732.732 0 1 0 .74 1.264 16.76 16.76 0 0 1 8.683-2.299 16.72 16.72 0 0 1 11.735 4.98 16.64 16.64 0 0 1 4.85 11.78c0 5.11-2.297 9.879-6.3 13.081a.73.73 0 0 0-.275.572v2.425a3.685 3.685 0 0 1-3.359 3.661h-6.209V19h6.776a.732.732 0 1 0 0-1.465H17.566a.732.732 0 1 0 0 1.465h6.628v18.966h-6.06a3.685 3.685 0 0 1-3.36-3.661V31.88a.73.73 0 0 0-.274-.572c-4.114-3.29-6.408-8.192-6.296-13.448.097-4.542 2-8.762 5.36-11.883a.733.733 0 0 0-.998-1.073c-3.652 3.393-5.72 7.983-5.826 12.924-.12 5.598 2.27 10.826 6.57 14.4v2.077c0 2.342 1.578 4.322 3.729 4.94v1.829c-1.022.03-1.109 1.432 0 1.465-.081 1.57.822 3.07 2.414 3.433-.094 2.13 1.518 4.03 3.71 4.03h3.676c2.202 0 3.79-1.9 3.71-4.03 1.59-.363 2.496-1.868 2.415-3.433 1.241 0 1.265-1.465 0-1.465v-1.829c2.15-.618 3.728-2.598 3.728-4.94v-2.077a18.13 18.13 0 0 0 6.575-14.002c0-4.828-1.873-9.377-5.274-12.81m-6.494 37.53c0 .904-.736 1.64-1.641 1.64h-1.252c-.947 0-.947 1.465 0 1.465h.478c.084 1.307-.9 2.486-2.245 2.486h-3.676c-1.344 0-2.329-1.18-2.245-2.486h3.789c.947 0 .947-1.465 0-1.465h-4.563c-1.115 0-1.749-1.03-1.64-2.047h12.995zm-12.996-1.871v-1.627h12.996v1.627zM4.98 18.364a.73.73 0 0 0-.732-.733H.733c-.947 0-.947 1.465 0 1.465h3.515a.73.73 0 0 0 .733-.732m.604 5.172a.73.73 0 0 0-.897-.518l-3.395.91c-.903.242-.496 1.65.379 1.415l3.396-.91a.73.73 0 0 0 .517-.897m.923 4.571-3.045 1.758c-.8.462-.074 1.734.733 1.268l3.044-1.757c.82-.474.088-1.742-.732-1.269M1.293 12.772l3.395.91c.883.237 1.284-1.172.38-1.415l-3.396-.91c-.915-.246-1.294 1.17-.38 1.415m2.171-5.937 3.045 1.758c.793.457 1.55-.796.732-1.268L4.196 5.567c-.82-.473-1.553.795-.733 1.268m45.805 10.797h-3.516c-.947 0-.947 1.464 0 1.464h3.515c.947 0 .947-1.465 0-1.465m-.559 6.297-3.396-.91c-.915-.246-1.294 1.17-.38 1.415l3.396.91c.883.237 1.284-1.173.38-1.415m-2.171 5.937-3.045-1.758c-.82-.473-1.552.795-.732 1.269l3.044 1.757c.793.458 1.551-.796.733-1.268m-2.122-16.7c.096.36.538.614.897.517l3.396-.91c.914-.244.535-1.66-.38-1.414l-3.396.91a.73.73 0 0 0-.517.896m-1.288-4.473a.73.73 0 0 0 .365-.098l3.045-1.758c.82-.473.088-1.742-.733-1.268L42.76 7.325c-.656.378-.34 1.366.367 1.366"/></g><defs><clipPath id="a"><path fill="#fff" d="M0 0h50v50H0z"/></clipPath></defs></svg>