<svg xmlns="http://www.w3.org/2000/svg" width="118" height="119" fill="none" viewBox="0 0 118 119"><g fill="#fff" clip-path="url(#a)"><path d="m85.997 59.101-25.812-8.78a3.63 3.63 0 0 0-2.37 0L32.003 59.1a3.68 3.68 0 0 0-2.503 3.491v19.755c0 24.112 26.914 35.833 28.06 36.32a3.7 3.7 0 0 0 2.88 0c1.146-.492 28.06-12.208 28.06-36.32V62.592a3.68 3.68 0 0 0-2.503-3.49m-10.84 18.644L61.634 94.954a4.92 4.92 0 0 1-7.065.698l-8.604-7.375a4.906 4.906 0 0 1-.531-6.933 4.914 4.914 0 0 1 6.927-.53l4.71 4.036 10.35-13.172a4.91 4.91 0 0 1 6.903-.826 4.897 4.897 0 0 1 .831 6.893"/><path d="M19.667 82.348V62.593a13.52 13.52 0 0 1 9.17-12.803l4.518-1.534C18.339 45.969 6.328 41.76 0 36.51v50.239c.034 9.434 11.579 15.703 27.042 19.15-4.39-6.579-7.375-14.45-7.375-23.551m64.979-34.092 4.518 1.539a13.5 13.5 0 0 1 9.17 12.798v19.755c0 9.1-2.985 16.977-7.376 23.556 15.463-3.447 27.008-9.716 27.042-19.15V36.51c-6.328 5.25-18.339 9.46-33.354 11.746M33.433 1.055C18.143 3.513 0 8.774 0 19.689c0 12.046 21.093 16.962 33.68 18.83l5.653.837V5.873c0-2.871-2.487-5.384-5.9-4.818m45.234 4.818v33.483l5.654-.836C96.908 36.65 118 31.735 118 19.689 118 8.774 99.858 3.513 84.567 1.055c-3.412-.566-5.9 1.947-5.9 4.818"/></g><defs><clipPath id="a"><path fill="#fff" d="M0 .957h118v118H0z"/></clipPath></defs></svg>