<svg xmlns="http://www.w3.org/2000/svg" width="104" height="104" fill="none" viewBox="0 0 104 104"><path fill="#fff" d="m52 87.086 9.55-5.457-5.125-3.854a1.87 1.87 0 0 1-.738-1.475v-4.222a13 13 0 0 1-7.375 0V76.3a1.87 1.87 0 0 1-.737 1.475l-5.126 3.854zM37.25 47.889l1.844 1.843v-1.087a1.8 1.8 0 0 1 1.014-1.641l7.375-3.688a1.8 1.8 0 0 1 1.272-.147l14.75 3.687a1.844 1.844 0 0 1 1.401 1.788v1.088l1.844-1.843V46.8a9.22 9.22 0 0 0-9.219-9.219H46.47a9.22 9.22 0 0 0-9.219 9.219z"/><path fill="#fff" d="M61.219 59.708v-9.625l-12.685-3.17-5.753 2.875v9.92a9.219 9.219 0 0 0 18.438 0m-7.375-7.375h3.687v3.687h-3.687zm-3.688 3.687H46.47v-3.687h3.687zM13.281 17.3a3.688 3.688 0 1 0 0-7.374 3.688 3.688 0 0 0 0 7.375"/><path fill="#fff" d="M3.878 17.504a1.88 1.88 0 0 1-.11 1.659l-1.199 1.991 3.171 3.172 1.992-1.199a1.88 1.88 0 0 1 1.659-.11 1.86 1.86 0 0 1 1.088 1.253l.553 2.25h4.499l.553-2.25a1.86 1.86 0 0 1 1.93-1.392 1.9 1.9 0 0 1 .817.249l1.991 1.199 3.171-3.172-1.198-1.991a1.88 1.88 0 0 1-.11-1.66 1.86 1.86 0 0 1 1.253-1.087l2.25-.553v-4.5l-2.25-.552a1.86 1.86 0 0 1-1.392-1.93c.02-.288.104-.568.249-.817l1.198-1.992-3.17-3.17-1.992 1.18a1.82 1.82 0 0 1-1.66.128 1.86 1.86 0 0 1-1.087-1.254L15.53.707h-4.5l-.552 2.25a1.856 1.856 0 0 1-1.933 1.389 1.8 1.8 0 0 1-.814-.265L5.74 2.901 2.57 6.072l1.198 1.992a1.88 1.88 0 0 1 .11 1.659 1.86 1.86 0 0 1-1.254 1.088l-2.249.553v4.499l2.25.553a1.86 1.86 0 0 1 1.253 1.088m9.403-11.266a7.375 7.375 0 1 1 0 14.75 7.375 7.375 0 0 1 0-14.75"/><path fill="#fff" d="M24.344 30.206a7.25 7.25 0 0 1-5.347-2.323l-.24.922a1.844 1.844 0 0 1-1.788 1.401h-3.245l-.092.148 3.19 3.19 1.99-1.199a1.84 1.84 0 0 1 1.642-.11 1.81 1.81 0 0 1 1.087 1.253l.554 2.25h4.498l.553-2.25a1.82 1.82 0 0 1 1.088-1.254 1.84 1.84 0 0 1 1.641.111l1.991 1.199 3.19-3.19-1.198-1.991a1.84 1.84 0 0 1-.11-1.641A1.81 1.81 0 0 1 35 25.634l2.25-.553v-4.499L35 20.029a1.81 1.81 0 0 1-1.254-1.088 1.84 1.84 0 0 1 .11-1.64l1.2-1.992-3.19-3.19-1.992 1.199V17.3a1.7 1.7 0 0 1-.092.535 7.386 7.386 0 0 1-5.439 12.371M9.336 63.468l-4.48-7.449H.374v12.907h6.232zm11.32 18.364a3.687 3.687 0 1 0-7.375 0 1.844 1.844 0 0 1-1.844 1.844H7.75a1.844 1.844 0 0 1-1.844-1.844v-9.219H.375v15.322l25.813 9.68v-13.94H22.5a1.844 1.844 0 0 1-1.844-1.843m77.438 0a1.844 1.844 0 0 1-1.844 1.844h-3.687a1.844 1.844 0 0 1-1.844-1.844 3.687 3.687 0 0 0-7.375 0 1.844 1.844 0 0 1-1.844 1.844h-3.687v13.939l25.812-9.68V72.613h-5.531zm-3.43-18.364 2.729 5.458h6.232V56.019h-4.48zM44.22 94.738h15.56l2.286-9.164-9.145 5.237a1.93 1.93 0 0 1-1.843 0l-9.145-5.237zm40.968-57.156A18.438 18.438 0 1 0 66.75 19.145a18.467 18.467 0 0 0 18.438 18.437M87.03 11.77h3.688v5.53h1.844v-5.53h3.687v14.75h-3.687v-5.532h-3.688a1.844 1.844 0 0 1-1.844-1.843zm-12.906 7.375a1.844 1.844 0 0 1 1.844-1.844h3.687v-1.844h-5.531V11.77H81.5a1.843 1.843 0 0 1 1.844 1.843v5.532a1.844 1.844 0 0 1-1.844 1.843h-3.687v1.844h5.53v3.688H75.97a1.844 1.844 0 0 1-1.844-1.844z"/><path fill="#fff" d="M63.007 97.025a1.844 1.844 0 0 1-1.788 1.4H42.78a1.844 1.844 0 0 1-1.788-1.4l-3.337-13.35h-7.781v20.282h44.25V83.676h-7.78zm1.899-42.849v5.531h3.688a1.844 1.844 0 0 0 1.844-1.844V56.02a1.844 1.844 0 0 0-1.844-1.844zM33.563 56.02v1.843a1.844 1.844 0 0 0 1.843 1.844h3.688v-5.531h-3.688a1.844 1.844 0 0 0-1.843 1.843m53.468 1.844V44.957h-3.687V56.02h-9.219v3.687h11.063a1.843 1.843 0 0 0 1.843-1.844m-70.062-14.75v14.75a1.844 1.844 0 0 0 1.843 1.844h11.063V56.02h-9.219V43.113z"/></svg>